<svg xmlns="http://www.w3.org/2000/svg" viewBox="0 0 262.5 262.5" fill="none">
  <path d="M112.9 168c1.7-.2-3.2 20-1.5 19.2 6-3 52.6-6.7 51.4-12.5-2.4-12.5-4.1-19.7-5.3-27.9-.7-4.7-8-3.5-12.3-9.2a14.4 14.4 0 01-3.6-8.5c0-1.7.3-3.7 3.6-9.3 5-8.7 6.6-8.2 7.5-11.9 1.5-6-1.4-11.5-3-14.6a26.4 26.4 0 00-7.7-9c-3-2.2-6.2-4.5-10.2-4-4.9.6-8 5.3-9.6 7.9-4.3 6.5-4.2 12.9-5.7 12.8-.8 0-1.4-1.5-2.5-5.4-2.5-9.8-1.2-12.2-3-17.6a32.3 32.3 0 00-8.1-12.7 40.6 40.6 0 00-9-7c-7-4-7.7-1.6-15.4-5.6-1.5-.7-3.1-1.7-4.8-1.1-1.4.4-2 1.7-4 5.4l-3.2 6A80.5 80.5 0 0061 83.6a278.1 278.1 0 00-3.7 34.8 137 137 0 00.4 23.2 69.3 69.3 0 003 13.4 25.2 25.2 0 002.8 6.5s2.2 6.6 8.1 7.1c14.2 1.4 31.8.3 41.4-.7z" fill="#e39f90"/>
  <path d="M158.8 151.2c-8.2 1.5-21.7-14.2-19.1-25 1.5-6.3 8-8.4 9.4-17.8a20.3 20.3 0 00-.3-8.3c-1.7-6.1-7.1-13.4-13.6-13.2-4 0-7.1 3-8.2 4a24.8 24.8 0 00-4.7 7c-2.2 4.1-2.7 6.2-5.3 8.1-.8.6-2.3 1.6-3.6 1.1-1.5-.5-1.9-3-2-4.1 0 0-1-6-3.5-18.2-.9-4.5-1.7-8.4-4.5-12.4-3.2-4.6-7.2-7-12-9.7s-8-4.6-12.8-5.5c-2.9-.5-5-.4-7.5-2-2-1.4-2.4-2.5-5-5.5-3.1-3.9-3.7-3.4-7-7-1-1.1-.7-1-7-10-2.3-3.5-3.8-5.7-4.4-9.1-.6-3.1.1-4.2.5-4.5 1.2-1.2 3.3-.8 4.4-.6 2.3.4 3.7 1.4 5.8 2.8 5.8 3.8 8.5 5 11.2 5.3 1.4.2 2.6.2 3.4-.5 1.4-1.3 1-3.7 1-4-.4-2.2-1.7-2.5-4.2-5.7a22 22 0 01-3.4-6c-.7-2.3-1.2-3.5-.7-4.8s1.6-2.5 7.1-4A44.1 44.1 0 0183.6 0c12.4.2 26.2 4.3 26.2 4.3a200.5 200.5 0 0132 12.9 109 109 0 0120 13.8c3.5 3 4.5 5.1 4.9 6a23.3 23.3 0 001.5 3.8 15 15 0 004.3 4.3 31.8 31.8 0 016.3 7 33.2 33.2 0 014.7 10.3A55.8 55.8 0 01186 78a75 75 0 01-1.7 16.6 151.7 151.7 0 01-7.8 27 127.9 127.9 0 01-5.8 13.3c-5.4 10.4-8 15.5-12 16.3z" fill="#2a3755"/>
  <path d="M18.5 259.9c-2.1 0 3-5.6 7.6-10.8a60.8 60.8 0 0113.3-12c4.6-2.8 9-6 13.6-8.7a8 8 0 003.7-3.4c1.5-3.2.1-4.8.1-8.5 0-5 3.5-10 6.4-12.5 9.2-7.8 21-8.3 22.7-8.8A8370 8370 0 01248.1 155c1.4-.3 1.6 71.2.8 105.1 0 2.4-206-.8-230.4-.2z" fill="#fff"/>
  <path d="M250.7 262.5H12l3.3-4c14-17.2 19-20.6 26.2-25.2a134.7 134.7 0 0012.4-9 16 16 0 00.2-3.7c0-4-.2-9.2 3-13.8a26.9 26.9 0 017.9-7 48.6 48.6 0 0118.3-7.2h.5c12.6-2.6 73.3-17.2 163.8-40l3-.8zm-228.2-5h223.2v-99.3a6663.4 6663.4 0 01-160.9 39.3h-.6a43.8 43.8 0 00-16.5 6.4 22.4 22.4 0 00-6.5 5.8c-2.2 3.2-2.2 7.2-2.1 10.8 0 3.2.1 6-2 7.6a138.7 138.7 0 01-13 9.4c-6.3 4.1-10.7 7-21.6 20z" fill="#2a3755"/>
</svg>