<svg viewBox="0 0 20 22" fill="none" xmlns="http://www.w3.org/2000/svg">
<path d="M19.3758 20.2418V16.8933C19.3758 15.9558 19.2418 15.0182 18.7061 14.0806C18.1703 13.143 17.5006 12.3394 16.5631 11.8036C15.6255 11.1339 13.6164 11 12.6788 11L10.5358 13.277L11.3394 15.0182V19.0364L10 20.5097L8.66063 19.0364V15.0182L9.59821 13.277L7.32124 11C6.24972 11 4.24063 11.1339 3.30306 11.8036C2.36548 12.3394 1.82972 13.143 1.29396 14.0806C0.758207 15.0182 0.624268 15.8218 0.624268 16.8933V20.2418C0.624268 20.2418 4.10669 21.7151 10 21.7151C15.8934 21.7151 19.3758 20.2418 19.3758 20.2418Z" fill="#132576"/>
<path d="M9.99996 0.418945C7.45511 0.418945 5.98178 2.82985 6.3836 5.50864C6.78541 8.18743 8.12481 10.0626 9.99996 10.0626C11.8751 10.0626 13.2145 8.18743 13.6163 5.50864C14.0181 2.69592 12.5448 0.418945 9.99996 0.418945Z" fill="#132576"/>
</svg>
