<svg viewBox="0 0 24 24" fill="none" xmlns="http://www.w3.org/2000/svg"><path d="M17.28 2.4a4.33 4.33 0 0 1 4.32 4.32v10.56a4.33 4.33 0 0 1-4.32 4.32H6.72a4.33 4.33 0 0 1-4.31-4.32V6.72A4.33 4.33 0 0 1 6.72 2.4h10.56Zm0-1.44H6.72A5.76 5.76 0 0 0 .96 6.72v10.56a5.76 5.76 0 0 0 5.76 5.76h10.56a5.76 5.76 0 0 0 5.76-5.76V6.72A5.76 5.76 0 0 0 17.28.96Z" fill="#192144"/><path d="M12.01 7.756a4.253 4.253 0 1 1-4.254 4.253 4.244 4.244 0 0 1 4.253-4.253Zm0-1.44a5.693 5.693 0 1 0 5.682 5.693 5.681 5.681 0 0 0-5.683-5.693Zm5.894 1.097a1.286 1.286 0 1 0 0-2.573 1.286 1.286 0 0 0 0 2.573Z" fill="#192144"/></svg>