<svg viewBox="0 0 30 16" fill="none" xmlns="http://www.w3.org/2000/svg"><path d="M23.946 15.777a4.05 4.05 0 01-2.08-.63 10.17 10.17 0 01-1.78-1.53c-.44-.44-1.17-1.18-1.45-1.18s-.48.92-.47 1.57a1.75 1.75 0 01-.47 1.21 2.26 2.26 0 01-1.22.5h-1.92a11.32 11.32 0 01-7.43-3c-3.68-3.37-6.84-9.81-6.97-10.09a1.34 1.34 0 01.15-1.48 2.07 2.07 0 011.36-.48h4.2c.338.05.661.169.95.35.272.183.49.435.63.73a22.09 22.09 0 001.48 2.67c1.31 2 1.89 2.46 2.1 2.56a8.11 8.11 0 00.19-2.87 2.702 2.702 0 00-.21-1.28 1.33 1.33 0 00-.77-.29l-.73-.69c-.14-.66.59-1.23 1.1-1.45a8.69 8.69 0 013.15-.38h.71a9.11 9.11 0 012.15.2c1.7.36 1.64 1.73 1.57 3.31 0 .46-.05 1-.05 1.62v.48c-.04.436-.009.875.09 1.3a9.09 9.09 0 002.07-2.48 20.396 20.396 0 001.52-2.8 1.58 1.58 0 011.6-.95h4.28a2 2 0 01.38 0c1 0 1.59.29 1.83.85s.17 1.66-2.36 4.61l-1 1.13a7.34 7.34 0 00-1.24 1.59c.379.431.809.814 1.28 1.14 1.15.867 2.16 1.902 3 3.07a1.6 1.6 0 01.26 1.68 2.3 2.3 0 01-1.88 1l-3.79.05-.23-.04zm-5.31-4.84c.9 0 1.68.79 2.51 1.62.448.49.952.926 1.5 1.3a2.51 2.51 0 001.4.42h.1l3.8-.05c.188-.01.371-.058.54-.14l-.1-.16a13.221 13.221 0 00-2.68-2.72c-1.19-1-1.8-1.47-1.87-2.24-.07-.77.49-1.44 1.61-2.71l1-1.11a10.731 10.731 0 002.05-2.95 5.66 5.66 0 00-.67 0h-4.37a.55.55 0 00-.24 0 20.507 20.507 0 01-1.65 3.05c-1.89 2.82-2.78 3.2-3.41 3.2a1.19 1.19 0 01-.56-.14c-1-.57-1-1.84-.94-2.76v-.43c0-.65 0-1.21.05-1.69.08-1.68 0-1.69-.38-1.78a8.561 8.561 0 00-1.86-.16h-.69a13 13 0 00-1.9.1c.096.07.18.155.25.25.413.65.618 1.41.59 2.18.13 1.65.06 3.8-1 4.32a1.38 1.38 0 01-.6.13c-.93 0-1.85-.88-3.42-3.26a23.42 23.42 0 01-1.61-2.85l-.08-.1a1.21 1.21 0 00-.32-.11h-4.07c.59 1.22 3.39 6.62 6.52 9.45a10 10 0 006.42 2.63h1.85a.999.999 0 00.27-.1v-.09c0-.27 0-2.6 1.58-3 .122-.048.25-.081.38-.1z" fill="#192144"/></svg>