<svg viewBox="0 0 18 20" fill="none" xmlns="http://www.w3.org/2000/svg">
<path d="M13.4545 4C14.4587 4 15.2727 3.10457 15.2727 2C15.2727 0.895431 14.4587 0 13.4545 0C12.4504 0 11.6364 0.895431 11.6364 2C11.6364 3.10457 12.4504 4 13.4545 4Z" fill="currentColor"/>
<path d="M12.3428 8.96897C12.5514 9.31105 12.8508 9.57419 13.2001 9.72268C13.5495 9.87117 13.9319 9.8978 14.2955 9.79897L17.31 8.96997L16.8709 7.02997L13.8564 7.85897L12.6027 5.79197C12.3349 5.35053 11.9192 5.04354 11.4464 4.93797L7.95002 4.16797C7.55888 4.08162 7.15277 4.13933 6.79441 4.33217C6.43606 4.52502 6.14539 4.84229 5.9673 5.23497L4.46002 8.55097L6.08639 9.44597L7.59366 6.12897L9.38184 6.52297L4.7582 15H0.727295V17H4.7582C5.39275 17 5.99002 16.628 6.3173 16.029L8.06093 12.833L12.76 13.867L14.4109 19.316L16.1346 18.683L14.4846 13.235C14.3827 12.9005 14.2026 12.6014 13.9622 12.3679C13.7219 12.1345 13.4298 11.9748 13.1155 11.905L10.3527 11.298L11.9637 8.34397L12.3428 8.96897Z" fill="currentColor"/>
</svg>
