<svg viewBox="0 0 18 20" fill="none" xmlns="http://www.w3.org/2000/svg">
<path d="M4.50098 13.5714C4.50098 13.1771 4.35456 12.8404 4.06171 12.5614C3.76886 12.2824 3.41549 12.1429 3.0016 12.1429C2.58771 12.1429 2.23435 12.2824 1.9415 12.5614C1.64865 12.8404 1.50223 13.1771 1.50223 13.5714C1.50223 13.9658 1.64865 14.3025 1.9415 14.5815C2.23435 14.8605 2.58771 15 3.0016 15C3.41549 15 3.76886 14.8605 4.06171 14.5815C4.35456 14.3025 4.50098 13.9658 4.50098 13.5714ZM16.496 13.5714C16.496 13.1771 16.3496 12.8404 16.0567 12.5614C15.7639 12.2824 15.4105 12.1429 14.9966 12.1429C14.5827 12.1429 14.2293 12.2824 13.9365 12.5614C13.6437 12.8404 13.4972 13.1771 13.4972 13.5714C13.4972 13.9658 13.6437 14.3025 13.9365 14.5815C14.2293 14.8605 14.5827 15 14.9966 15C15.4105 15 15.7639 14.8605 16.0567 14.5815C16.3496 14.3025 16.496 13.9658 16.496 13.5714ZM15.9571 9.15179L15.1137 4.86607C15.0747 4.69494 14.9868 4.55543 14.8502 4.44754C14.7135 4.33966 14.5554 4.28571 14.3758 4.28571H3.62244C3.44283 4.28571 3.28469 4.33966 3.14803 4.44754C3.01137 4.55543 2.92351 4.69494 2.88447 4.86607L2.04107 9.15179C2.00202 9.375 2.05669 9.57217 2.20506 9.7433C2.35344 9.91443 2.54476 10 2.77904 10H15.2192C15.4534 10 15.6448 9.91443 15.7931 9.7433C15.9415 9.57217 15.9962 9.375 15.9571 9.15179ZM13.3098 2.32143C13.3098 2.17262 13.2551 2.04613 13.1458 1.94196C13.0365 1.8378 12.9037 1.78571 12.7475 1.78571H5.25067C5.09448 1.78571 4.96172 1.8378 4.8524 1.94196C4.74307 2.04613 4.6884 2.17262 4.6884 2.32143C4.6884 2.47024 4.74307 2.59673 4.8524 2.70089C4.96172 2.80506 5.09448 2.85714 5.25067 2.85714H12.7475C12.9037 2.85714 13.0365 2.80506 13.1458 2.70089C13.2551 2.59673 13.3098 2.47024 13.3098 2.32143ZM17.9954 10.4129V17.1429H16.496V18.5714C16.496 18.9658 16.3496 19.3025 16.0567 19.5815C15.7639 19.8605 15.4105 20 14.9966 20C14.5827 20 14.2293 19.8605 13.9365 19.5815C13.6437 19.3025 13.4972 18.9658 13.4972 18.5714V17.1429H4.50098V18.5714C4.50098 18.9658 4.35456 19.3025 4.06171 19.5815C3.76886 19.8605 3.41549 20 3.0016 20C2.58771 20 2.23435 19.8605 1.9415 19.5815C1.64865 19.3025 1.50223 18.9658 1.50223 18.5714V17.1429H0.00285339V10.4129C0.00285339 9.57961 0.100469 8.75 0.2957 7.92411L1.50223 2.85714C1.57251 2.27679 1.95321 1.76711 2.64433 1.32812C3.33545 0.889137 4.23351 0.558036 5.33852 0.334821C6.44353 0.111607 7.66372 0 8.99911 0C10.3345 0 11.5547 0.111607 12.6597 0.334821C13.7647 0.558036 14.6628 0.889137 15.3539 1.32812C16.045 1.76711 16.4257 2.27679 16.496 2.85714L17.7259 7.92411C17.9056 8.68304 17.9954 9.51265 17.9954 10.4129Z" fill="currentColor"/>
</svg>
