<svg xmlns="http://www.w3.org/2000/svg" viewBox="0 0 70 47" fill="none">
  <defs>
    <clipPath id="clip-path">
      <rect width="70" height="47" rx="7" fill="none"/>
    </clipPath>
  </defs>
  <path d="M7,0H63a7,7,0,0,1,7,7V26.5a0,0,0,0,1,0,0H0a0,0,0,0,1,0,0V7A7,7,0,0,1,7,0Z" fill="#fff"/>
  <path d="M0,24.15H70a0,0,0,0,1,0,0V40a7,7,0,0,1-7,7H7a7,7,0,0,1-7-7V24.15a0,0,0,0,1,0,0Z" fill="#ed5565"/>
  <g clip-path="url(#clip-path)">
    <polygon points="24.61 24.15 0 0 0 47 24.61 24.15" fill="#4758a9"/>
  </g>
</svg>
