<svg viewBox="0 0 20 35" fill="none" xmlns="http://www.w3.org/2000/svg">
<path d="M1.08281 34.0563C1.2891 34.2672 1.53416 34.4345 1.80396 34.5487C2.07376 34.6629 2.363 34.7217 2.65511 34.7217C2.94721 34.7217 3.23645 34.6629 3.50625 34.5487C3.77605 34.4345 4.02111 34.2672 4.2274 34.0563L18.991 18.9993C19.1557 18.8317 19.2864 18.6326 19.3755 18.4134C19.4647 18.1942 19.5106 17.9592 19.5106 17.7219C19.5106 17.4846 19.4647 17.2496 19.3755 17.0305C19.2864 16.8113 19.1557 16.6122 18.991 16.4445L4.2274 1.38755C3.35686 0.499718 1.95335 0.499718 1.08281 1.38755C0.212271 2.27539 0.741529 3.61216 1.61207 4.5L14.334 17.7219L1.61207 31C0.759295 31.8697 0.212271 33.1866 1.08281 34.0563Z" fill="black"/>
</svg>
