<svg viewBox="0 0 22 18" fill="none" xmlns="http://www.w3.org/2000/svg">
<path d="M17.1875 18C16.3346 18 15.5008 17.7471 14.7916 17.2732C14.0824 16.7994 13.5297 16.1258 13.2033 15.3378C12.8769 14.5498 12.7915 13.6827 12.9579 12.8462C13.1243 12.0096 13.535 11.2412 14.1381 10.6381C14.7412 10.035 15.5096 9.62426 16.3462 9.45787C17.1827 9.29147 18.0498 9.37687 18.8378 9.70327C19.6258 10.0297 20.2994 10.5824 20.7732 11.2916C21.2471 12.0008 21.5 12.8346 21.5 13.6875C21.4988 14.8309 21.044 15.927 20.2355 16.7355C19.427 17.544 18.3309 17.9988 17.1875 18ZM17.1875 10.875C16.6312 10.875 16.0875 11.04 15.625 11.349C15.1624 11.658 14.802 12.0973 14.5891 12.6112C14.3762 13.1251 14.3205 13.6906 14.429 14.2362C14.5376 14.7818 14.8054 15.2829 15.1988 15.6762C15.5921 16.0696 16.0932 16.3374 16.6388 16.446C17.1844 16.5545 17.7499 16.4988 18.2638 16.2859C18.7777 16.073 19.217 15.7126 19.526 15.25C19.8351 14.7875 20 14.2438 20 13.6875C19.9991 12.9418 19.7025 12.227 19.1753 11.6997C18.648 11.1725 17.9332 10.8759 17.1875 10.875Z" fill="currentColor"/>
<path d="M4.8125 18C3.95957 18 3.12579 17.7471 2.41661 17.2732C1.70742 16.7994 1.15467 16.1258 0.828271 15.3378C0.501869 14.5498 0.416467 13.6827 0.582865 12.8462C0.749264 12.0096 1.15999 11.2412 1.7631 10.6381C2.36622 10.035 3.13463 9.62426 3.97117 9.45787C4.80772 9.29147 5.67482 9.37687 6.46282 9.70327C7.25083 10.0297 7.92435 10.5824 8.39822 11.2916C8.87208 12.0008 9.125 12.8346 9.125 13.6875C9.12376 14.8309 8.66901 15.927 7.86053 16.7355C7.05205 17.544 5.95587 17.9988 4.8125 18ZM4.8125 10.875C4.25624 10.875 3.71247 11.04 3.24996 11.349C2.78745 11.658 2.42696 12.0973 2.21409 12.6112C2.00122 13.1251 1.94552 13.6906 2.05404 14.2362C2.16256 14.7818 2.43043 15.2829 2.82376 15.6762C3.2171 16.0696 3.71824 16.3374 4.26381 16.446C4.80938 16.5545 5.37488 16.4988 5.8888 16.2859C6.40272 16.073 6.84197 15.7126 7.15101 15.25C7.46005 14.7875 7.625 14.2438 7.625 13.6875C7.62413 12.9418 7.32754 12.227 6.80028 11.6997C6.27302 11.1725 5.55816 10.8759 4.8125 10.875Z" fill="currentColor"/>
<path d="M14 3.00005C14.1976 3.00073 14.3933 2.96225 14.5759 2.88681C14.7585 2.81138 14.9244 2.7005 15.0638 2.56058C15.2033 2.42065 15.3137 2.25447 15.3886 2.07163C15.4634 1.88879 15.5013 1.69293 15.5 1.49536C15.5022 1.29878 15.4651 1.10374 15.3911 0.921638C15.317 0.739537 15.2074 0.574034 15.0686 0.434805C14.9298 0.295576 14.7646 0.185416 14.5827 0.110767C14.4009 0.0361174 14.2059 -0.00152278 14.0094 4.7162e-05C13.8124 -0.000568412 13.6172 0.0376205 13.435 0.112434C13.2528 0.187247 13.0871 0.29722 12.9473 0.436072C12.8076 0.574925 12.6966 0.739938 12.6207 0.921691C12.5447 1.10344 12.5053 1.29838 12.5047 1.49536C12.5041 1.69234 12.5422 1.88752 12.6171 2.06974C12.6919 2.25197 12.8018 2.41767 12.9407 2.55739C13.0796 2.69712 13.2446 2.80812 13.4263 2.88407C13.6081 2.96002 13.803 2.99943 14 3.00005Z" fill="currentColor"/>
<path d="M16.2289 6.00028H14.1777C14.144 6.00028 14.111 5.99124 14.082 5.97408C14.0531 5.95693 14.0293 5.9323 14.0131 5.90278L12.5253 3.17606C12.4205 2.97342 12.2694 2.79832 12.0843 2.66492C11.8993 2.53152 11.6854 2.44357 11.46 2.4082C11.2346 2.37282 11.004 2.39102 10.787 2.4613C10.5699 2.53159 10.3725 2.652 10.2106 2.81278L6.93594 6.11278C6.66083 6.39358 6.50467 6.7697 6.5 7.16278C6.5 7.9784 7.09063 8.26903 7.36719 8.43309C8.70313 9.20278 9.64391 9.76575 10.16 10.0784C10.1874 10.0951 10.2101 10.1186 10.2259 10.1466C10.2416 10.1746 10.2499 10.2061 10.25 10.2382V13.4782C10.25 13.8818 10.5603 14.2282 10.9639 14.2484C11.0652 14.2533 11.1665 14.2376 11.2616 14.2022C11.3567 14.1668 11.4436 14.1125 11.517 14.0426C11.5905 13.9726 11.6491 13.8885 11.6891 13.7953C11.7291 13.7021 11.7499 13.6017 11.75 13.5003V9.46903C11.7501 9.34997 11.7218 9.2326 11.6675 9.12664C11.6132 9.02067 11.5345 8.92915 11.4378 8.85965L9.70344 7.61231C9.68167 7.59673 9.66349 7.57667 9.65011 7.55348C9.63674 7.53029 9.62849 7.50451 9.62591 7.47786C9.62334 7.45122 9.6265 7.42433 9.63518 7.39901C9.64386 7.37369 9.65787 7.35052 9.67625 7.33106L11.645 5.23153C11.6652 5.20993 11.6902 5.1934 11.718 5.18331C11.7458 5.17322 11.7756 5.16984 11.8049 5.17345C11.8342 5.17706 11.8623 5.18756 11.8868 5.20409C11.9113 5.22062 11.9316 5.24271 11.9459 5.26856L12.9688 7.1145C13.0338 7.23151 13.1289 7.329 13.2443 7.39683C13.3597 7.46467 13.4911 7.50039 13.625 7.50028H16.25C16.3516 7.50039 16.4522 7.47987 16.5456 7.43994C16.639 7.40001 16.7234 7.34152 16.7935 7.268C16.8636 7.19449 16.9181 7.10749 16.9536 7.01229C16.9891 6.91709 17.0049 6.81567 17 6.71418C16.9803 6.31059 16.6325 6.00028 16.2289 6.00028Z" fill="currentColor"/>
</svg>
