<svg width="24" height="24" viewBox="0 0 24 24" fill="none" xmlns="http://www.w3.org/2000/svg">
<path d="M18.1875 21C17.3346 21 16.5008 20.7471 15.7916 20.2732C15.0824 19.7994 14.5297 19.1258 14.2033 18.3378C13.8769 17.5498 13.7915 16.6827 13.9579 15.8462C14.1243 15.0096 14.535 14.2412 15.1381 13.6381C15.7412 13.035 16.5096 12.6243 17.3462 12.4579C18.1827 12.2915 19.0498 12.3769 19.8378 12.7033C20.6258 13.0297 21.2994 13.5824 21.7732 14.2916C22.2471 15.0008 22.5 15.8346 22.5 16.6875C22.4988 17.8309 22.044 18.927 21.2355 19.7355C20.427 20.544 19.3309 20.9988 18.1875 21ZM18.1875 13.875C17.6312 13.875 17.0875 14.04 16.625 14.349C16.1624 14.658 15.802 15.0973 15.5891 15.6112C15.3762 16.1251 15.3205 16.6906 15.429 17.2362C15.5376 17.7818 15.8054 18.2829 16.1988 18.6762C16.5921 19.0696 17.0932 19.3374 17.6388 19.446C18.1844 19.5545 18.7499 19.4988 19.2638 19.2859C19.7777 19.073 20.217 18.7126 20.526 18.25C20.8351 17.7875 21 17.2438 21 16.6875C20.9991 15.9418 20.7025 15.227 20.1753 14.6997C19.648 14.1725 18.9332 13.8759 18.1875 13.875Z" fill="#1D2E5B"/>
<path d="M5.8125 21C4.95957 21 4.12579 20.7471 3.41661 20.2732C2.70742 19.7994 2.15467 19.1258 1.82827 18.3378C1.50187 17.5498 1.41647 16.6827 1.58287 15.8462C1.74926 15.0096 2.15999 14.2412 2.7631 13.6381C3.36622 13.035 4.13463 12.6243 4.97117 12.4579C5.80772 12.2915 6.67482 12.3769 7.46282 12.7033C8.25083 13.0297 8.92435 13.5824 9.39822 14.2916C9.87208 15.0008 10.125 15.8346 10.125 16.6875C10.1238 17.8309 9.66901 18.927 8.86053 19.7355C8.05205 20.544 6.95587 20.9988 5.8125 21ZM5.8125 13.875C5.25624 13.875 4.71247 14.04 4.24996 14.349C3.78745 14.658 3.42696 15.0973 3.21409 15.6112C3.00122 16.1251 2.94552 16.6906 3.05404 17.2362C3.16256 17.7818 3.43043 18.2829 3.82376 18.6762C4.2171 19.0696 4.71824 19.3374 5.26381 19.446C5.80938 19.5545 6.37488 19.4988 6.8888 19.2859C7.40272 19.073 7.84197 18.7126 8.15101 18.25C8.46005 17.7875 8.625 17.2438 8.625 16.6875C8.62413 15.9418 8.32754 15.227 7.80028 14.6997C7.27302 14.1725 6.55816 13.8759 5.8125 13.875Z" fill="#1D2E5B"/>
<path d="M15 6.00005C15.1976 6.00073 15.3933 5.96225 15.5759 5.88681C15.7585 5.81138 15.9244 5.7005 16.0638 5.56058C16.2033 5.42065 16.3137 5.25447 16.3886 5.07163C16.4634 4.88879 16.5013 4.69293 16.5 4.49536C16.5022 4.29878 16.4651 4.10374 16.3911 3.92164C16.317 3.73954 16.2074 3.57403 16.0686 3.4348C15.9298 3.29558 15.7646 3.18542 15.5827 3.11077C15.4009 3.03612 15.2059 2.99848 15.0094 3.00005C14.8124 2.99943 14.6172 3.03762 14.435 3.11243C14.2528 3.18725 14.0871 3.29722 13.9473 3.43607C13.8076 3.57493 13.6966 3.73994 13.6207 3.92169C13.5447 4.10344 13.5053 4.29838 13.5047 4.49536C13.5041 4.69234 13.5422 4.88752 13.6171 5.06974C13.6919 5.25197 13.8018 5.41767 13.9407 5.55739C14.0796 5.69712 14.2446 5.80812 14.4263 5.88407C14.6081 5.96002 14.803 5.99943 15 6.00005Z" fill="#1D2E5B"/>
<path d="M17.2289 9.00028H15.1777C15.144 9.00028 15.111 8.99124 15.082 8.97408C15.0531 8.95693 15.0293 8.9323 15.0131 8.90278L13.5253 6.17606C13.4205 5.97342 13.2694 5.79832 13.0843 5.66492C12.8993 5.53152 12.6854 5.44357 12.46 5.4082C12.2346 5.37282 12.004 5.39102 11.787 5.4613C11.5699 5.53159 11.3725 5.652 11.2106 5.81278L7.93594 9.11278C7.66083 9.39358 7.50467 9.7697 7.5 10.1628C7.5 10.9784 8.09063 11.269 8.36719 11.4331C9.70313 12.2028 10.6439 12.7657 11.16 13.0784C11.1874 13.0951 11.2101 13.1186 11.2259 13.1466C11.2416 13.1746 11.2499 13.2061 11.25 13.2382V16.4782C11.25 16.8818 11.5603 17.2282 11.9639 17.2484C12.0652 17.2533 12.1665 17.2376 12.2616 17.2022C12.3567 17.1668 12.4436 17.1125 12.517 17.0426C12.5905 16.9726 12.6491 16.8885 12.6891 16.7953C12.7291 16.7021 12.7499 16.6017 12.75 16.5003V12.469C12.7501 12.35 12.7218 12.2326 12.6675 12.1266C12.6132 12.0207 12.5345 11.9292 12.4378 11.8597L10.7034 10.6123C10.6817 10.5967 10.6635 10.5767 10.6501 10.5535C10.6367 10.5303 10.6285 10.5045 10.6259 10.4779C10.6233 10.4512 10.6265 10.4243 10.6352 10.399C10.6439 10.3737 10.6579 10.3505 10.6762 10.3311L12.645 8.23153C12.6652 8.20993 12.6902 8.1934 12.718 8.18331C12.7458 8.17322 12.7756 8.16984 12.8049 8.17345C12.8342 8.17706 12.8623 8.18756 12.8868 8.20409C12.9113 8.22062 12.9316 8.24271 12.9459 8.26856L13.9688 10.1145C14.0338 10.2315 14.1289 10.329 14.2443 10.3968C14.3597 10.4647 14.4911 10.5004 14.625 10.5003H17.25C17.3516 10.5004 17.4522 10.4799 17.5456 10.4399C17.639 10.4 17.7234 10.3415 17.7935 10.268C17.8636 10.1945 17.9181 10.1075 17.9536 10.0123C17.9891 9.91709 18.0049 9.81567 18 9.71418C17.9803 9.31059 17.6325 9.00028 17.2289 9.00028Z" fill="#1D2E5B"/>
</svg>
