<svg width="22" height="24" viewBox="0 0 22 24" fill="none" xmlns="http://www.w3.org/2000/svg">
<path d="M15.4545 6C16.4587 6 17.2727 5.10457 17.2727 4C17.2727 2.89543 16.4587 2 15.4545 2C14.4504 2 13.6364 2.89543 13.6364 4C13.6364 5.10457 14.4504 6 15.4545 6Z" fill="#1D2E5B"/>
<path d="M14.3428 10.969C14.5514 11.311 14.8508 11.5742 15.2001 11.7227C15.5495 11.8712 15.9319 11.8978 16.2955 11.799L19.31 10.97L18.8709 9.02997L15.8564 9.85897L14.6027 7.79197C14.3349 7.35053 13.9192 7.04354 13.4464 6.93797L9.95002 6.16797C9.55888 6.08162 9.15277 6.13933 8.79441 6.33217C8.43606 6.52502 8.14539 6.84229 7.9673 7.23497L6.46002 10.551L8.08639 11.446L9.59366 8.12897L11.3818 8.52297L6.7582 17H2.72729V19H6.7582C7.39275 19 7.99002 18.628 8.3173 18.029L10.0609 14.833L14.76 15.867L16.4109 21.316L18.1346 20.683L16.4846 15.235C16.3827 14.9005 16.2026 14.6014 15.9622 14.3679C15.7219 14.1345 15.4298 13.9748 15.1155 13.905L12.3527 13.298L13.9637 10.344L14.3428 10.969Z" fill="#1D2E5B"/>
</svg>
