<svg viewBox="0 0 16 18" fill="none" xmlns="http://www.w3.org/2000/svg">
<path d="M7.97418 7.42388C7.97418 7.61288 8.12781 7.76138 8.31556 7.76138C8.70474 7.76138 9.0188 8.07526 9.0188 8.45663C9.0188 8.64225 9.17243 8.79413 9.36018 8.79413C9.54794 8.79413 9.70156 8.64225 9.70156 8.45663C9.70156 7.70064 9.08025 7.08638 8.31556 7.08638C8.12781 7.08638 7.97418 7.23826 7.97418 7.42388ZM13.5318 8.79413C13.723 8.79413 13.8732 8.64225 13.8732 8.45663C13.8732 5.42589 11.3811 2.96214 8.31556 2.96214C8.12781 2.96214 7.97418 3.114 7.97418 3.29964C7.97418 3.48526 8.12781 3.63714 8.31556 3.63714C11.0056 3.63714 13.1905 5.80051 13.1905 8.45663C13.1905 8.64225 13.3441 8.79413 13.5318 8.79413Z" fill="#161C35"/>
<path d="M11.1046 8.45663C11.1046 8.64225 11.2582 8.79413 11.446 8.79413C11.6338 8.79413 11.7874 8.64225 11.7874 8.45663C11.7874 6.56326 10.2307 5.02426 8.31554 5.02426C8.12779 5.02426 7.97416 5.17614 7.97416 5.36176C7.97416 5.55076 8.12779 5.69926 8.31554 5.69926C9.85517 5.69926 11.1046 6.93788 11.1046 8.45663ZM8.31554 0.900002C8.12779 0.900002 7.97416 1.05188 7.97416 1.2375C7.97416 1.42314 8.12779 1.575 8.31554 1.575C12.1561 1.575 15.2797 4.66314 15.2797 8.45663C15.2797 8.64225 15.4299 8.79413 15.6211 8.79413C15.8088 8.79413 15.9624 8.64225 15.9624 8.45663C15.9624 4.28852 12.5316 0.900002 8.31554 0.900002ZM11.6508 12.0139L11.2036 12.2535C10.4492 12.6619 9.86208 13.7813 8.93104 12.9375L6.5 10.5L4.39993 8.45663C3.34484 7.1235 4.52624 6.80625 4.9393 6.05701L5.18168 5.61827C5.45478 5.11875 5.55377 4.55851 5.47185 3.99825C5.39333 3.43801 5.1373 2.92838 4.72764 2.52338C4.22924 2.03064 3.56696 1.76064 2.86031 1.76064C2.15365 1.76064 1.48796 2.03064 0.989535 2.52338L0.815449 2.69888C-0.106279 3.61014 -0.212106 5.1795 0.515034 7.1235C1.20119 8.97975 2.58379 10.9913 4.39993 12.7868C7.16851 15.5239 10.2512 17.1 12.4633 17.1C13.3372 17.1 14.078 16.8536 14.6037 16.3339L14.7813 16.1584C15.2763 15.669 15.5528 15.0143 15.5562 14.3089C15.5528 13.6204 15.2694 12.9454 14.7813 12.4628C13.9585 11.6494 12.6715 11.4671 11.6508 12.0139Z" fill="#161C35"/>
</svg>
