<svg viewBox="0 0 16 12" fill="none" xmlns="http://www.w3.org/2000/svg">
<path d="M1.25913 1.60026L7.25913 5.36066C7.46073 5.48666 7.72153 5.54639 7.98393 5.54639C8.24633 5.54639 8.50713 5.48666 8.70873 5.36066L14.7087 1.60026C15.0999 1.35479 15.4695 0.399994 14.7519 0.399994H1.21673C0.499128 0.399994 0.868728 1.35479 1.25913 1.60026ZM14.8903 3.65639L8.70873 7.41493C8.43673 7.58106 8.24633 7.60066 7.98393 7.60066C7.72153 7.60066 7.53113 7.58106 7.25913 7.41493C6.98713 7.24879 1.55273 3.92519 1.10873 3.65546C0.796728 3.46506 0.799928 3.68813 0.799928 3.85986V10.6667C0.799928 11.0587 1.25273 11.6 1.59993 11.6H14.3999C14.7471 11.6 15.1999 11.0587 15.1999 10.6667V3.86079C15.1999 3.68906 15.2031 3.46599 14.8903 3.65639Z" fill="#161C35"/>
</svg>
