<svg viewBox="0 0 32 30" fill="none" xmlns="http://www.w3.org/2000/svg">
<path fill-rule="evenodd" clip-rule="evenodd" d="M16 0.172363C10.4071 0.172363 4.80078 1.1177 2.76656 3.00191C1.07881 4.56509 0.516199 7.32664 0.326551 9.07513C0.326551 9.07513 0.300415 9.24791 0.300415 9.32224C0.300415 10.0079 0.889015 10.5578 1.60866 10.5578C1.69369 10.5578 4.84016 10.3168 6.73714 10.1686C6.78279 10.1623 6.8288 10.1562 6.87445 10.1439C7.58099 10.1255 8.15022 9.58166 8.15022 8.90832L8.15655 6.47406C8.15655 5.72035 8.80441 5.11481 9.60253 5.11481H22.3974C23.1957 5.11481 23.8436 5.72028 23.8436 6.47406L23.85 8.90832C23.85 9.58166 24.4192 10.1255 25.1257 10.1439C25.171 10.1563 25.217 10.1623 25.2632 10.1686C27.1603 10.3167 30.3067 10.5578 30.3915 10.5578C31.1108 10.5578 31.6998 10.0079 31.6998 9.32224C31.6998 9.24791 31.6737 9.07513 31.6737 9.07513C31.4839 7.32664 30.922 4.56516 29.2341 3.00191C27.1993 1.1177 21.5929 0.172363 16 0.172363ZM16 16.2355C14.5543 16.2355 13.3834 17.3413 13.3834 18.7067C13.3834 20.0721 14.5543 21.1778 16 21.1778C17.4457 21.1778 18.6166 20.0721 18.6166 18.7067C18.6166 17.3413 17.4457 16.2355 16 16.2355ZM14.0376 10.6751V9.13061C14.0376 8.2781 13.3048 7.58613 12.4023 7.58613C11.4997 7.58613 10.7669 8.27817 10.7669 9.13061V10.6751L1.94202 19.5779C1.3339 20.1402 0.954391 20.9245 0.954391 21.7897V24.2671C0.954391 25.6325 2.1254 26.7383 3.57102 26.7383H4.22521V28.2829C4.22521 29.1354 4.95802 29.8273 5.86062 29.8273C6.76321 29.8273 7.49595 29.1354 7.49595 28.2829V26.7383H24.5041V28.2829C24.5041 29.1354 25.2366 29.8273 26.1396 29.8273C27.0422 29.8273 27.7748 29.1354 27.7748 28.2829V26.7383H28.4289C29.8746 26.7383 31.0455 25.6325 31.0455 24.2671V21.7897C31.0455 20.9245 30.6661 20.1401 30.0579 19.5779L21.2333 10.6751V9.13061C21.2333 8.2781 20.5005 7.58613 19.5979 7.58613C18.6953 7.58613 17.9626 8.27817 17.9626 9.13061V10.6751H14.0376ZM16 13.7643C18.8914 13.7643 21.2333 15.976 21.2333 18.7067C21.2333 21.4375 18.8915 23.6494 16 23.6494C13.1086 23.6494 10.7668 21.4375 10.7668 18.7067C10.7668 15.976 13.1086 13.7643 16 13.7643Z" fill="currentColor"/>
</svg>
