<svg xmlns="http://www.w3.org/2000/svg" xmlns:xlink="http://www.w3.org/1999/xlink"><symbol id="icon-contacts-email" viewBox="0 0 37 26"><path fill-rule="evenodd" clip-rule="evenodd" d="M32.279 20.933L23.618 13l8.66-7.933-1.18-1.262L18.5 15.344 5.902 3.805l-1.18 1.262L13.381 13l-8.66 7.933 1.18 1.262 8.76-8.023 3.838 3.515 3.838-3.515 8.76 8.023 1.18-1.262zM3.152.5C1.534.5.222 1.898.222 3.616v18.768c0 1.721 1.301 3.116 2.93 3.116h30.696c1.618 0 2.93-1.398 2.93-3.116V3.616c0-1.721-1.301-3.116-2.93-3.116H3.152z" fill="currentColor"/></symbol><symbol id="icon-contacts-phone" viewBox="0 0 32 30"><path fill-rule="evenodd" clip-rule="evenodd" d="M16 .172c-5.593 0-11.2.946-13.233 2.83C1.079 4.565.517 7.327.327 9.075c0 0-.027.173-.027.247 0 .686.589 1.236 1.309 1.236.085 0 3.231-.241 5.128-.39.046-.006.092-.012.137-.024.707-.018 1.276-.562 1.276-1.236l.007-2.434c0-.754.647-1.36 1.446-1.36h12.794c.799 0 1.447.606 1.447 1.36l.006 2.434c0 .674.57 1.218 1.276 1.236.045.012.091.018.137.025 1.897.148 5.044.389 5.128.389.72 0 1.309-.55 1.309-1.236 0-.074-.026-.247-.026-.247-.19-1.748-.752-4.51-2.44-6.073C27.2 1.118 21.593.172 16 .172zm0 16.063c-1.446 0-2.617 1.106-2.617 2.472 0 1.365 1.171 2.47 2.617 2.47s2.617-1.105 2.617-2.47c0-1.366-1.171-2.472-2.617-2.472zm-1.962-5.56V9.131c0-.853-.733-1.545-1.636-1.545-.902 0-1.635.692-1.635 1.545v1.544l-8.825 8.903a3.008 3.008 0 00-.988 2.212v2.477c0 1.366 1.171 2.471 2.617 2.471h.654v1.545c0 .852.733 1.544 1.636 1.544.902 0 1.635-.692 1.635-1.544v-1.545h17.008v1.545c0 .852.733 1.544 1.636 1.544.902 0 1.635-.692 1.635-1.544v-1.545h.654c1.446 0 2.617-1.105 2.617-2.47V21.79c0-.866-.38-1.65-.988-2.212l-8.825-8.903V9.131c0-.853-.733-1.545-1.635-1.545-.903 0-1.635.692-1.635 1.545v1.544h-3.925zM16 13.765c2.891 0 5.233 2.211 5.233 4.942 0 2.73-2.341 4.942-5.233 4.942-2.891 0-5.233-2.212-5.233-4.942 0-2.731 2.342-4.943 5.233-4.943z" fill="currentColor"/></symbol><symbol id="icon-route-remove-cross" viewBox="0 0 20 20"><path d="M19 1.75L1 18.25m0-16.5l18 16.5" stroke="currentColor" stroke-width="1.7" stroke-linecap="round" stroke-linejoin="round"/></symbol><symbol id="icon-transport-bmx" viewBox="0 0 22 18"><path d="M17.188 18a4.312 4.312 0 110-8.625 4.312 4.312 0 010 8.625zm0-7.125a2.813 2.813 0 100 5.625 2.813 2.813 0 000-5.625zM4.813 18a4.312 4.312 0 110-8.624 4.312 4.312 0 010 8.624zm0-7.125a2.813 2.813 0 100 5.626 2.813 2.813 0 000-5.626zM14 3a1.495 1.495 0 001.5-1.505A1.48 1.48 0 0014.01 0 1.5 1.5 0 1014 3z" fill="currentColor"/><path d="M16.229 6h-2.051a.188.188 0 01-.165-.097l-1.488-2.727a1.453 1.453 0 00-2.314-.363l-3.275 3.3c-.275.28-.431.657-.436 1.05 0 .815.59 1.106.867 1.27 1.336.77 2.277 1.333 2.793 1.645a.188.188 0 01.09.16v3.24c0 .404.31.75.714.77a.75.75 0 00.786-.748V9.47a.75.75 0 00-.312-.61L9.703 7.613a.188.188 0 01-.027-.28l1.969-2.1a.188.188 0 01.3.037l1.024 1.845a.75.75 0 00.656.386h2.625a.75.75 0 00.75-.786.765.765 0 00-.771-.714z" fill="currentColor"/></symbol><symbol id="icon-transport-car" viewBox="0 0 18 20"><path d="M4.501 13.571c0-.394-.146-.73-.44-1.01a1.481 1.481 0 00-1.06-.418c-.413 0-.767.14-1.06.418a1.35 1.35 0 00-.439 1.01c0 .395.147.732.44 1.01.292.28.646.419 1.06.419.413 0 .767-.14 1.06-.418.293-.28.439-.616.439-1.01zm11.995 0c0-.394-.146-.73-.44-1.01a1.481 1.481 0 00-1.06-.418c-.413 0-.767.14-1.06.418a1.35 1.35 0 00-.439 1.01c0 .395.147.732.44 1.01.292.28.646.419 1.06.419.414 0 .767-.14 1.06-.418.293-.28.439-.616.439-1.01zm-.539-4.42l-.843-4.285a.744.744 0 00-.738-.58H3.622a.744.744 0 00-.738.58l-.843 4.286a.682.682 0 00.164.591c.148.171.34.257.574.257h12.44a.725.725 0 00.574-.257.682.682 0 00.164-.591zm-2.647-6.83a.505.505 0 00-.164-.379.556.556 0 00-.399-.156H5.252a.556.556 0 00-.399.156.505.505 0 00-.164.38c0 .148.055.275.164.379.11.104.242.156.399.156h7.497a.556.556 0 00.398-.156.505.505 0 00.164-.38zm4.685 8.092v6.73h-1.499v1.428c0 .395-.146.731-.44 1.01a1.481 1.481 0 01-1.06.419c-.413 0-.767-.14-1.06-.419a1.345 1.345 0 01-.439-1.01v-1.428H4.501v1.428c0 .395-.146.731-.44 1.01a1.481 1.481 0 01-1.06.419c-.413 0-.767-.14-1.06-.419a1.345 1.345 0 01-.439-1.01v-1.428h-1.5v-6.73c0-.833.098-1.663.294-2.489l1.206-5.067c.07-.58.451-1.09 1.142-1.529C3.335.89 4.234.558 5.34.335 6.444.112 7.664 0 8.999 0s2.556.112 3.66.335c1.106.223 2.004.554 2.695.993.691.44 1.072.949 1.142 1.53l1.23 5.066c.18.759.27 1.589.27 2.489z" fill="currentColor"/></symbol><symbol id="icon-transport-plane" viewBox="0 0 23 22"><path d="M18.535 1.18c-.805.18-1.613.362-1.914.859l-2.327 4.373L1.8 9.214l-.506 1.398 9.561.853-1.622 3.786-3.626.813-.91 1.488 2.616.268.298 1.217c.134.431.603.72 1.003.63l1.209-.271 1.4 2.253.911-1.488-.895-3.65 2.626-3.157 5.01 8.293 1.01-1.081L16.8 7.989l2.831-4.058c.305-.497.106-1.307-.093-2.121-.099-.403-.603-.72-1.003-.63z" fill="currentColor"/></symbol><symbol id="icon-transport-walk" viewBox="0 0 18 20"><path d="M13.454 4c1.005 0 1.819-.895 1.819-2s-.814-2-1.819-2c-1.004 0-1.818.895-1.818 2s.814 2 1.819 2zm-1.111 4.969c.208.342.508.605.857.754.35.148.732.175 1.096.076l3.014-.829-.44-1.94-3.014.829-1.253-2.067a1.83 1.83 0 00-1.157-.854l-3.496-.77a1.669 1.669 0 00-1.156.164c-.358.193-.649.51-.827.903L4.46 8.551l1.626.895 1.508-3.317 1.788.394L4.758 15H.728v2h4.03c.635 0 1.232-.372 1.56-.971l1.743-3.196 4.699 1.034 1.65 5.449 1.725-.633-1.65-5.448a2.032 2.032 0 00-.523-.867 1.767 1.767 0 00-.846-.463l-2.763-.607 1.61-2.954.38.625z" fill="currentColor"/></symbol></svg>